<svg xmlns="http://www.w3.org/2000/svg" xmlns:xlink="http://www.w3.org/1999/xlink" x="0px" y="0px" viewBox="0 0 40 40" style="enable-background:new 0 0 40 40;" xml:space="preserve"><style type="text/css">	.location-icon{fill:#EC6325;}</style><path class="location-icon" d="M38,19.1L20.6,2.7c-0.2-0.1-0.4-0.2-0.6-0.2c-0.2,0-0.4,0.1-0.6,0.2L2.1,19.1c-0.2,0.2-0.4,0.5-0.5,0.9 c-0.1,0.3,0,0.7,0.1,1c0.1,0.3,0.3,0.6,0.6,0.8c0.3,0.2,0.6,0.3,1,0.3h3.1v12.9c0,0.3,0.1,0.7,0.2,1c0.1,0.3,0.3,0.6,0.6,0.8 c0.2,0.2,0.5,0.4,0.8,0.6c0.3,0.1,0.6,0.2,1,0.2h5.4c0.1,0,0.2,0,0.3-0.1c0.1,0,0.2-0.1,0.3-0.2s0.1-0.2,0.2-0.3 c0-0.1,0.1-0.2,0.1-0.3v-7.1c0-0.3,0.1-0.7,0.2-1c0.1-0.3,0.3-0.6,0.6-0.8c0.2-0.2,0.5-0.4,0.8-0.6s0.6-0.2,1-0.2h4.5 c0.3,0,0.7,0.1,1,0.2s0.6,0.3,0.8,0.6c0.2,0.2,0.4,0.5,0.6,0.8c0.1,0.3,0.2,0.6,0.2,1v7.1c0,0.1,0,0.2,0.1,0.3 c0,0.1,0.1,0.2,0.2,0.3s0.2,0.1,0.3,0.2c0.1,0,0.2,0.1,0.3,0.1h5.4c0.3,0,0.7-0.1,1-0.2c0.3-0.1,0.6-0.3,0.8-0.6 c0.2-0.2,0.4-0.5,0.6-0.8c0.1-0.3,0.2-0.6,0.2-1V22.1h3.1c0.3,0,0.7-0.1,1-0.3c0.3-0.2,0.5-0.5,0.6-0.8c0.1-0.3,0.2-0.7,0.1-1 C38.4,19.7,38.2,19.4,38,19.1z"></path></svg>